<?xml version="1.0" encoding="utf-8"?>
<!-- Generator: Adobe Illustrator 26.0.3, SVG Export Plug-In . SVG Version: 6.00 Build 0)  -->
<svg version="1.1" id="Layer_1" xmlns="http://www.w3.org/2000/svg" xmlns:xlink="http://www.w3.org/1999/xlink" x="0px" y="0px"
	 viewBox="0 0 894 196" style="enable-background:new 0 0 894 196;" xml:space="preserve">
<style type="text/css">
	.st0{fill:#1D252C;}
	.st1{fill:#0046BE;}
	.st2{fill-rule:evenodd;clip-rule:evenodd;fill:#1D252C;}
	.st3{fill:#FFFFFF;}
</style>
<path class="st0" d="M11.4,41.6h30.4v44.8h40.6V41.6h30.2V156H82.4v-45.9H41.8V156H11.4V41.6z"/>
<path class="st0" d="M147.8,157.9c-3.8,0-7.5-0.5-10.9-1.4c-3.4-1-6.4-2.4-9-4.3c-2.6-2-4.6-4.5-6.1-7.5c-1.5-3.1-2.2-6.8-2.2-11
	c0-4.9,1-8.9,2.9-12c2-3.2,4.8-5.8,8.3-7.7c3.5-2,7.6-3.6,12.3-4.8c4.8-1.2,10-2.2,15.5-3.2c4.9-0.9,8.4-2,10.4-3.4
	c2-1.4,3-3.3,3-5.8c0-2.6-0.9-4.5-2.6-5.9c-1.7-1.5-4.7-2.2-9-2.2c-4.2,0-7.3,1-9.3,3c-2,1.9-3.2,4.4-3.5,7.4h-25.1
	c0.4-4.9,1.7-9.2,3.7-12.8c2.1-3.6,4.9-6.6,8.3-9c3.4-2.3,7.4-4.1,12-5.3c4.7-1.2,9.8-1.8,15.2-1.8c5.5,0,10.6,0.6,15,1.8
	c4.5,1.2,8.3,3,11.5,5.4s5.7,5.6,7.4,9.4c1.8,3.8,2.7,8.4,2.7,13.6V156h-25.6v-10.1c-2.2,3.2-5.3,6-9.3,8.5
	C159.8,156.7,154.5,157.9,147.8,157.9z M156.4,140c4.5,0,8.2-1.2,11.2-3.7c3.1-2.5,4.6-5.7,4.6-9.8V116c-1.1,1-2.6,1.8-4.5,2.6
	c-1.8,0.7-4.3,1.4-7.5,2.1c-4.3,1-7.7,2.3-10.4,4c-2.7,1.6-4,3.9-4,7c0,2.5,0.8,4.5,2.4,6.1C150,139.3,152.7,140,156.4,140z"/>
<path class="st0" d="M247.6,157.9c-6.2,0-11.9-0.9-17.3-2.7c-5.3-1.8-10-4.5-13.9-8.2c-3.8-3.6-6.9-8.1-9.1-13.4
	c-2.1-5.3-3.2-11.5-3.2-18.4v-1.3c0-6.8,1.1-13,3.4-18.4c2.3-5.4,5.5-10,9.4-13.8c4.1-3.7,8.7-6.6,14.1-8.5c5.3-2,11-3,17.1-3
	c5,0,9.9,0.6,14.6,1.8c4.7,1.2,8.9,3.1,12.5,5.8c3.7,2.7,6.8,6.1,9.1,10.4c2.3,4.3,3.7,9.5,4.2,15.7h-25c-0.7-4.3-2.3-7.5-4.6-9.6
	c-2.3-2.2-5.7-3.4-10.1-3.4c-5.4,0-9.8,1.9-13,5.8c-3.1,3.8-4.6,9.5-4.6,17v1.3c0,7.7,1.5,13.5,4.6,17.4c3.1,3.9,7.6,5.9,13.4,5.9
	c4.3,0,7.8-1.2,10.7-3.7c2.9-2.6,4.6-6.3,5.1-11.2h23.8c-0.2,5.2-1.3,10-3.2,14.2c-1.9,4.2-4.6,7.8-8.2,10.9c-3.4,3-7.6,5.3-12.6,7
	C259.9,157.1,254.1,157.9,247.6,157.9z"/>
<path class="st0" d="M294.5,38.4h26.6v67.8l24.2-33.9h27.8l-28.6,37.8l31,45.9h-29.9l-24.5-37.6V156h-26.6V38.4z"/>
<path class="st1" d="M569.4,41.6h48.8c13.1,0,22.8,2.7,29,8.2c6.2,5.3,9.3,12.6,9.3,21.8v0.6c0,6.3-1.6,11.5-4.8,15.7
	c-3.1,4.1-7.8,7-14.2,8.8c7.3,1.4,12.9,4.3,16.8,8.6c4.1,4.3,6.1,10.3,6.1,18.2v0.6c0,10.3-3.4,18.2-10.1,23.7
	c-6.7,5.4-17.1,8.2-31,8.2h-49.8V41.6z M612.4,87.7c5.7,0,9.6-1,11.8-3c2.3-2,3.5-5.3,3.5-9.8v-0.6c0-4.4-1.2-7.5-3.7-9.4
	c-2.3-1.9-6.2-2.9-11.7-2.9h-13.6v25.8H612.4z M614,135.5c5.7,0,9.8-1.2,12.5-3.7s4-6,4-10.6v-0.6c0-4.8-1.4-8.4-4.2-10.7
	c-2.7-2.3-7.1-3.5-13.4-3.5h-14.1v29.1H614z"/>
<path class="st1" d="M667.3,38.4h26.4V156h-26.4V38.4z"/>
<path class="st1" d="M732.1,157.9c-4.1,0-7.8-0.6-11.4-1.9c-3.4-1.3-6.4-3.2-9-5.8c-2.5-2.6-4.4-5.8-5.9-9.6
	c-1.4-3.9-2.1-8.6-2.1-13.9V72.3h26.6v50.2c0,10,4.3,15,12.8,15c4.6,0,8.3-1.3,11.2-4c2.9-2.8,4.3-7,4.3-12.8V72.3h26.6V156h-26.6
	v-13c-2.2,4.3-5.5,7.8-9.8,10.7C744.6,156.5,739,157.9,732.1,157.9z"/>
<path class="st1" d="M836.1,157.9c-6.4,0-12.4-1-17.9-2.9c-5.4-1.9-10.1-4.7-14.1-8.3c-3.9-3.6-7-8.1-9.3-13.4
	c-2.2-5.3-3.4-11.4-3.4-18.1v-1.3c0-6.7,1.1-12.7,3.4-18.1c2.3-5.4,5.5-10,9.4-13.8c3.9-3.8,8.6-6.8,13.9-8.8c5.4-2,11.3-3,17.6-3
	c5.5,0,10.8,0.9,15.8,2.6c5.1,1.6,9.6,4.2,13.4,7.7c3.8,3.4,6.9,7.8,9.1,13.3c2.3,5.4,3.5,11.9,3.5,19.4v7.2h-59.4
	c0.4,6.1,2.2,10.8,5.4,14.1c3.2,3.3,7.6,5,13.3,5c5,0,8.7-1,11-2.9c2.5-2,3.9-4.6,4.5-7.7h25.1c-1.4,9.4-5.6,16.6-12.6,21.6
	C858,155.4,848.4,157.9,836.1,157.9z M851.8,104.8c-0.5-11.2-5.9-16.8-16-16.8c-4.7,0-8.5,1.4-11.5,4.3c-2.9,2.9-4.7,7-5.6,12.5
	H851.8z"/>
<path class="st2" d="M538,65.8l-5.8-6.9l-8.5,7.1c-14.3-15.4-32.1-23.8-46.2-22.8c12.9,4.1,27.5,13.8,40.2,27.9l-92.6,77.7l5.8,6.9
	L523.5,78c11.8,15,19,31.1,20.7,44.7c3.4-13.8-1.8-32.9-14.7-49.7L538,65.8z"/>
<path class="st2" d="M393.2,65.8l5.8-6.9l8.5,7.1c14.3-15.4,32.1-23.8,46.2-22.8c-12.9,4.1-27.5,13.8-40.2,27.9l92.6,77.7l-5.8,6.9
	L407.8,78c-11.8,15-19,31.1-20.7,44.7c-3.4-13.8,1.8-32.9,14.7-49.7L393.2,65.8z"/>
<path class="st2" d="M440.6,64.7L450,56h37.5v29.5H450l-9.3-8.6V64.7z M446.3,72.5c1,0,1.9-0.9,1.9-1.9s-0.9-1.9-1.9-1.9
	c-1,0-1.9,0.9-1.9,1.9C444.4,71.6,445.3,72.5,446.3,72.5z"/>
<path class="st3" d="M457.3,74.1l3.6-3.1c0.7-0.6,1.2-1.1,1.6-1.5c0.4-0.5,0.6-1,0.6-1.5c0-0.4-0.1-0.7-0.3-1
	c-0.2-0.2-0.5-0.4-1-0.4s-0.8,0.1-1.1,0.4c-0.3,0.3-0.4,0.8-0.5,1.5h-2.8c0.1-1.4,0.5-2.5,1.3-3.2s1.9-1.1,3.2-1.1
	c0.7,0,1.3,0.1,1.8,0.3c0.5,0.2,1,0.4,1.3,0.7c0.4,0.3,0.6,0.7,0.8,1.1s0.3,0.9,0.3,1.4c0,0.8-0.2,1.5-0.7,2.2
	c-0.5,0.7-1.2,1.3-2.1,2l-2,1.5h4.8V76h-8.7V74.1z"/>
<path class="st3" d="M468.7,74.1l3.6-3.1c0.7-0.6,1.2-1.1,1.6-1.5c0.4-0.5,0.6-1,0.6-1.5c0-0.4-0.1-0.7-0.3-1
	c-0.2-0.2-0.5-0.4-1-0.4s-0.8,0.1-1.1,0.4c-0.3,0.3-0.4,0.8-0.5,1.5h-2.8c0.1-1.4,0.5-2.5,1.3-3.2c0.8-0.7,1.9-1.1,3.2-1.1
	c0.7,0,1.3,0.1,1.8,0.3c0.5,0.2,1,0.4,1.3,0.7c0.4,0.3,0.6,0.7,0.8,1.1c0.2,0.4,0.3,0.9,0.3,1.4c0,0.8-0.2,1.5-0.7,2.2
	c-0.5,0.7-1.2,1.3-2.1,2l-2,1.5h4.8V76h-8.7V74.1z"/>
</svg>
